<?xml version="1.0" encoding="UTF-8"?>
<!DOCTYPE svg PUBLIC "-//W3C//DTD SVG 1.1//EN" "http://www.w3.org/Graphics/SVG/1.1/DTD/svg11.dtd">
<!-- Creator: CorelDRAW 2020 (64-Bit) -->
<svg xmlns="http://www.w3.org/2000/svg" xml:space="preserve" width="3.3866mm" height="3.3866mm" version="1.1" style="shape-rendering:geometricPrecision; text-rendering:geometricPrecision; image-rendering:optimizeQuality; fill-rule:evenodd; clip-rule:evenodd"
viewBox="0 0 338.66 338.66"
 xmlns:xlink="http://www.w3.org/1999/xlink"
 xmlns:xodm="http://www.corel.com/coreldraw/odm/2003">
 <defs>
  <style type="text/css">
   <![CDATA[
    .fil0 {fill:#002FFF;fill-rule:nonzero}
   ]]>
  </style>
 </defs>
 <g id="Capa_x0020_1">
  <metadata id="CorelCorpID_0Corel-Layer"/>
  <g id="github-big-logo.svg">
   <g id="XMLID_122_">
    <g>
     <path class="fil0" d="M240.89 154.65c0.67,-4.27 1.09,-8.96 1.2,-14.22 -0.04,-22.52 -10.82,-30.5 -12.9,-34.23 3.06,-17.07 -0.5,-24.83 -2.16,-27.49 -6.11,-2.17 -21.26,5.6 -29.53,11.06 -13.49,-3.95 -42.01,-3.56 -52.71,1.02 -19.74,-14.12 -30.18,-11.97 -30.18,-11.97 0,0 -6.74,12.1 -1.78,29.8 -6.49,8.27 -11.33,14.12 -11.33,29.64 0,3.72 0.23,7.23 0.62,10.61 5.6,29.4 28.89,42.08 51.77,44.26 -3.44,2.62 -7.58,7.57 -8.15,13.31 -4.32,2.8 -13.03,3.72 -19.79,1.6 -9.49,-3 -13.11,-21.78 -27.32,-19.1 -3.07,0.57 -2.46,2.6 0.2,4.33 4.33,2.8 8.4,6.29 11.54,13.76 2.42,5.72 7.49,15.96 23.53,15.96 6.37,0 10.83,-0.75 10.83,-0.75 0,0 0.12,14.6 0.12,20.29 0,6.56 -8.84,8.4 -8.84,11.54 0,1.25 2.93,1.37 5.28,1.37 4.65,0 14.33,-3.87 14.33,-10.69 0,-5.41 0.08,-23.6 0.08,-26.79 0,-6.96 3.73,-9.18 3.73,-9.18 0,0 0.46,37.16 -0.9,42.14 -1.59,5.86 -4.46,5.03 -4.46,7.64 0,3.89 11.63,0.95 15.49,-7.57 2.98,-6.65 1.64,-43.09 1.64,-43.09l3.12 -0.07c0,0 0.03,16.69 -0.07,24.32 -0.12,7.9 -0.93,17.88 3.76,22.59 3.08,3.1 12.51,8.54 12.51,3.57 0,-2.88 -6.61,-5.26 -6.61,-13.07l-0.01 -35.93c4.02,0 4.84,11.82 4.84,11.82l1.45 21.95c0,0 -0.96,8.01 8.65,11.35 3.4,1.19 10.66,1.51 11,-0.48 0.33,-2 -8.75,-4.96 -8.83,-11.16 -0.05,-3.78 0.16,-5.98 0.16,-22.41 0,-16.41 -2.2,-22.48 -9.88,-27.32 22.29,-2.3 45.43,-12.25 49.6,-38.41z"/>
    </g>
   </g>
   <g>
   </g>
   <g>
   </g>
   <g>
   </g>
   <g>
   </g>
   <g>
   </g>
   <g>
   </g>
   <g>
   </g>
   <g>
   </g>
   <g>
   </g>
   <g>
   </g>
   <g>
   </g>
   <g>
   </g>
   <g>
   </g>
   <g>
   </g>
   <g>
   </g>
  </g>
 </g>
</svg>
