<?xml version="1.0" encoding="UTF-8"?>
<!DOCTYPE svg PUBLIC "-//W3C//DTD SVG 1.1//EN" "http://www.w3.org/Graphics/SVG/1.1/DTD/svg11.dtd">
<!-- Creator: CorelDRAW 2020 (64-Bit) -->
<svg xmlns="http://www.w3.org/2000/svg" xml:space="preserve" width="3.3866mm" height="3.3866mm" version="1.1" style="shape-rendering:geometricPrecision; text-rendering:geometricPrecision; image-rendering:optimizeQuality; fill-rule:evenodd; clip-rule:evenodd"
viewBox="0 0 338.66 338.66"
 xmlns:xlink="http://www.w3.org/1999/xlink"
 xmlns:xodm="http://www.corel.com/coreldraw/odm/2003">
 <defs>
  <style type="text/css">
   <![CDATA[
    .fil0 {fill:#002FFF;fill-rule:nonzero}
   ]]>
  </style>
 </defs>
 <g id="Capa_x0020_1">
  <metadata id="CorelCorpID_0Corel-Layer"/>
  <g id="twitter.svg">
   <path class="fil0" d="M254.77 116.34c-6.35,2.79 -13.12,4.64 -20.18,5.53 7.26,-4.33 12.8,-11.15 15.41,-19.36 -6.77,4.04 -14.25,6.89 -22.22,8.48 -6.43,-6.84 -15.59,-11.08 -25.58,-11.08 -19.4,0 -35.02,15.74 -35.02,35.04 0,2.78 0.25,5.45 0.82,7.98 -29.12,-1.42 -54.89,-15.37 -72.21,-36.64 -3.03,5.25 -4.79,11.25 -4.79,17.71 0,12.13 6.25,22.89 15.56,29.11 -5.63,-0.1 -11.16,-1.74 -15.83,-4.31 0,0.11 0,0.25 0,0.38 0,17.03 12.14,31.17 28.06,34.43 -2.84,0.78 -5.95,1.15 -9.18,1.15 -2.24,0 -4.51,-0.12 -6.63,-0.6 4.54,13.87 17.42,24.08 32.73,24.41 -11.92,9.32 -27.05,14.93 -43.44,14.93 -2.86,0 -5.62,-0.12 -8.38,-0.48 15.52,10.02 33.91,15.72 53.75,15.72 64.46,0 99.71,-53.39 99.71,-99.68 0,-1.55 -0.06,-3.04 -0.13,-4.53 6.95,-4.93 12.79,-11.1 17.55,-18.19z"/>
   <g>
   </g>
   <g>
   </g>
   <g>
   </g>
   <g>
   </g>
   <g>
   </g>
   <g>
   </g>
   <g>
   </g>
   <g>
   </g>
   <g>
   </g>
   <g>
   </g>
   <g>
   </g>
   <g>
   </g>
   <g>
   </g>
   <g>
   </g>
   <g>
   </g>
  </g>
 </g>
</svg>
